<?xml version="1.0" encoding="utf-8"?>
<!-- Generator: Adobe Adobe Illustrator 28.1.0, SVG Export Plug-In . SVG Version: 6.00 Build 0)  -->
<svg version="1.1" id="Layer_1" xmlns="http://www.w3.org/2000/svg" xmlns:xlink="http://www.w3.org/1999/xlink" x="0px" y="0px"
	 width="800px" height="800px" viewBox="0 0 800 800" style="enable-background:new 0 0 800 800;" xml:space="preserve">
<style type="text/css">
	.st0{fill:#781F12;}
</style>
<g>
	<path class="st0" d="M200,0c-27.86,20.93-62.48,33.33-100,33.33C62.48,33.33,27.86,20.93,0,0c20.93,27.86,33.34,62.48,33.34,100
		S20.93,172.14,0,200c27.86-20.93,62.48-33.33,100-33.33c37.52,0,72.14,12.4,100,33.33c-20.93-27.86-33.34-62.48-33.34-100
		S179.07,27.86,200,0z"/>
</g>
<g>
	<path class="st0" d="M400,0c-27.86,20.93-62.48,33.33-100,33.33c-37.52,0-72.14-12.4-100-33.33c20.93,27.86,33.34,62.48,33.34,100
		S220.93,172.14,200,200c27.86-20.93,62.48-33.33,100-33.33c37.52,0,72.14,12.4,100,33.33c-20.93-27.86-33.34-62.48-33.34-100
		S379.07,27.86,400,0z"/>
</g>
<g>
	<path class="st0" d="M600,0c-27.86,20.93-62.48,33.33-100,33.33c-37.52,0-72.14-12.4-100-33.33c20.93,27.86,33.34,62.48,33.34,100
		S420.93,172.14,400,200c27.86-20.93,62.48-33.33,100-33.33c37.52,0,72.14,12.4,100,33.33c-20.93-27.86-33.34-62.48-33.34-100
		S579.07,27.86,600,0z"/>
</g>
<g>
	<path class="st0" d="M800,0c-27.86,20.93-62.48,33.33-100,33.33c-37.52,0-72.14-12.4-100-33.33c20.93,27.86,33.34,62.48,33.34,100
		S620.93,172.14,600,200c27.86-20.93,62.48-33.33,100-33.33c37.52,0,72.14,12.4,100,33.33c-20.93-27.86-33.34-62.48-33.34-100
		S779.07,27.86,800,0z"/>
</g>
<g>
	<path class="st0" d="M200,200c-27.86,20.93-62.48,33.33-100,33.33c-37.52,0-72.14-12.4-100-33.33
		c20.93,27.86,33.34,62.48,33.34,100S20.93,372.14,0,400c27.86-20.93,62.48-33.33,100-33.33c37.52,0,72.14,12.4,100,33.33
		c-20.93-27.86-33.34-62.48-33.34-100S179.07,227.86,200,200z"/>
</g>
<g>
	<path class="st0" d="M400,200c-27.86,20.93-62.48,33.33-100,33.33c-37.52,0-72.14-12.4-100-33.33
		c20.93,27.86,33.34,62.48,33.34,100S220.93,372.14,200,400c27.86-20.93,62.48-33.33,100-33.33c37.52,0,72.14,12.4,100,33.33
		c-20.93-27.86-33.34-62.48-33.34-100S379.07,227.86,400,200z"/>
</g>
<g>
	<path class="st0" d="M600,200c-27.86,20.93-62.48,33.33-100,33.33c-37.52,0-72.14-12.4-100-33.33
		c20.93,27.86,33.34,62.48,33.34,100S420.93,372.14,400,400c27.86-20.93,62.48-33.33,100-33.33c37.52,0,72.14,12.4,100,33.33
		c-20.93-27.86-33.34-62.48-33.34-100S579.07,227.86,600,200z"/>
</g>
<g>
	<path class="st0" d="M800,200c-27.86,20.93-62.48,33.33-100,33.33c-37.52,0-72.14-12.4-100-33.33
		c20.93,27.86,33.34,62.48,33.34,100S620.93,372.14,600,400c27.86-20.93,62.48-33.33,100-33.33c37.52,0,72.14,12.4,100,33.33
		c-20.93-27.86-33.34-62.48-33.34-100S779.07,227.86,800,200z"/>
</g>
<g>
	<path class="st0" d="M200,400c-27.86,20.93-62.48,33.33-100,33.33c-37.52,0-72.14-12.4-100-33.33
		c20.93,27.86,33.34,62.48,33.34,100S20.93,572.14,0,600c27.86-20.93,62.48-33.33,100-33.33c37.52,0,72.14,12.4,100,33.33
		c-20.93-27.86-33.34-62.48-33.34-100S179.07,427.86,200,400z"/>
</g>
<g>
	<path class="st0" d="M400,400c-27.86,20.93-62.48,33.33-100,33.33c-37.52,0-72.14-12.4-100-33.33
		c20.93,27.86,33.34,62.48,33.34,100S220.93,572.14,200,600c27.86-20.93,62.48-33.33,100-33.33c37.52,0,72.14,12.4,100,33.33
		c-20.93-27.86-33.34-62.48-33.34-100S379.07,427.86,400,400z"/>
</g>
<g>
	<path class="st0" d="M600,400c-27.86,20.93-62.48,33.33-100,33.33c-37.52,0-72.14-12.4-100-33.33
		c20.93,27.86,33.34,62.48,33.34,100S420.93,572.14,400,600c27.86-20.93,62.48-33.33,100-33.33c37.52,0,72.14,12.4,100,33.33
		c-20.93-27.86-33.34-62.48-33.34-100S579.07,427.86,600,400z"/>
</g>
<g>
	<path class="st0" d="M800,400c-27.86,20.93-62.48,33.33-100,33.33c-37.52,0-72.14-12.4-100-33.33
		c20.93,27.86,33.34,62.48,33.34,100S620.93,572.14,600,600c27.86-20.93,62.48-33.33,100-33.33c37.52,0,72.14,12.4,100,33.33
		c-20.93-27.86-33.34-62.48-33.34-100S779.07,427.86,800,400z"/>
</g>
<g>
	<path class="st0" d="M200,600c-27.86,20.93-62.48,33.33-100,33.33c-37.52,0-72.14-12.4-100-33.33
		c20.93,27.86,33.34,62.48,33.34,100S20.93,772.14,0,800c27.86-20.93,62.48-33.33,100-33.33c37.52,0,72.14,12.4,100,33.33
		c-20.93-27.86-33.34-62.48-33.34-100S179.07,627.86,200,600z"/>
</g>
<g>
	<path class="st0" d="M400,600c-27.86,20.93-62.48,33.33-100,33.33c-37.52,0-72.14-12.4-100-33.33
		c20.93,27.86,33.34,62.48,33.34,100S220.93,772.14,200,800c27.86-20.93,62.48-33.33,100-33.33c37.52,0,72.14,12.4,100,33.33
		c-20.93-27.86-33.34-62.48-33.34-100S379.07,627.86,400,600z"/>
</g>
<g>
	<path class="st0" d="M600,600c-27.86,20.93-62.48,33.33-100,33.33c-37.52,0-72.14-12.4-100-33.33
		c20.93,27.86,33.34,62.48,33.34,100S420.93,772.14,400,800c27.86-20.93,62.48-33.33,100-33.33c37.52,0,72.14,12.4,100,33.33
		c-20.93-27.86-33.34-62.48-33.34-100S579.07,627.86,600,600z"/>
</g>
<g>
	<path class="st0" d="M800,600c-27.86,20.93-62.48,33.33-100,33.33c-37.52,0-72.14-12.4-100-33.33
		c20.93,27.86,33.34,62.48,33.34,100S620.93,772.14,600,800c27.86-20.93,62.48-33.33,100-33.33c37.52,0,72.14,12.4,100,33.33
		c-20.93-27.86-33.34-62.48-33.34-100S779.07,627.86,800,600z"/>
</g>
</svg>
